# xmcd CD database file
#
# Track frame offsets:
#	150
#	26388
#	48557
#	69400
#	96230
#	116871
#	138235
#	160764
#	183342
#	215774
#	235615
#
# Disc length: 3328 seconds
#
# Revision: 0
# Processed by: cddbd v1.5.2PL0 Copyright (c) Steve Scherf et al.
# Submitted via: CDex 1.70beta2
#
DISCID=950cfe0b
DTITLE=Jos Van Beest Trio  - The Ginza Shuffle
DYEAR=1900
DGENRE=Jazz
TTITLE0=Fly Me to the Moon 
TTITLE1=One Note Samba 
TTITLE2=The Ginza Shuffle 
TTITLE3=If I Should Lose You 
TTITLE4=Watch What Happens 
TTITLE5=Meditation 
TTITLE6=Call Me 
TTITLE7=Besame Mucho 
TTITLE8=I’ll Remember April 
TTITLE9=Corcovado 
TTITLE10=Ben (in honor of Michael) 
EXTD=
EXTT0=
EXTT1=
EXTT2=
EXTT3=
EXTT4=
EXTT5=
EXTT6=
EXTT7=
EXTT8=
EXTT9=
EXTT10=
PLAYORDER=
